<?xml version="1.0" encoding="utf-8"?>
<!-- Generator: Adobe Illustrator 27.5.0, SVG Export Plug-In . SVG Version: 6.00 Build 0)  -->
<svg version="1.1" id="Layer_1" xmlns="http://www.w3.org/2000/svg" xmlns:xlink="http://www.w3.org/1999/xlink" x="0px" y="0px"
	 viewBox="0 0 106 106" style="enable-background:new 0 0 106 106;" xml:space="preserve">
<style type="text/css">
	.st0{fill-rule:evenodd;clip-rule:evenodd;fill:#F7A833;}
	.st1{fill:#F7A833;}
</style>
<g>
	<path class="st1" d="M53,40.92c-6.67,0-12.08,5.41-12.08,12.08S46.33,65.08,53,65.08c6.67,0,12.08-5.41,12.08-12.08
		S59.67,40.92,53,40.92z"/>
	<path class="st1" d="M81.24,31.63c-0.66-1.69-1.44-2.9-2.71-4.17c-1.27-1.27-2.47-2.05-4.17-2.71c-1.28-0.5-3.2-1.09-6.73-1.25
		C63.82,23.33,62.67,23.3,53,23.3c-9.67,0-10.82,0.04-14.64,0.21c-3.53,0.16-5.45,0.75-6.73,1.25c-1.69,0.66-2.9,1.44-4.17,2.71
		c-1.27,1.27-2.05,2.47-2.71,4.17c-0.5,1.28-1.09,3.2-1.25,6.73C23.33,42.18,23.3,43.33,23.3,53s0.04,10.82,0.21,14.64
		c0.16,3.53,0.75,5.45,1.25,6.73c0.66,1.69,1.44,2.9,2.71,4.17c1.27,1.27,2.47,2.05,4.17,2.71c1.28,0.5,3.2,1.09,6.73,1.25
		c3.82,0.17,4.97,0.21,14.64,0.21c9.67,0,10.82-0.04,14.64-0.21c3.53-0.16,5.45-0.75,6.73-1.25c1.69-0.66,2.9-1.44,4.17-2.71
		s2.05-2.47,2.71-4.17c0.5-1.28,1.09-3.2,1.25-6.73c0.17-3.82,0.21-4.97,0.21-14.64s-0.04-10.82-0.21-14.64
		C82.33,34.83,81.74,32.91,81.24,31.63z M53,71.6c-10.28,0-18.6-8.33-18.6-18.6S42.72,34.4,53,34.4c10.28,0,18.6,8.33,18.6,18.6
		S63.28,71.6,53,71.6z M72.34,38.01c-2.4,0-4.35-1.95-4.35-4.35s1.95-4.35,4.35-4.35c2.4,0,4.35,1.95,4.35,4.35
		S74.74,38.01,72.34,38.01z"/>
	<path class="st1" d="M93.05,0h-80.1C5.8,0,0,5.8,0,12.95v80.1C0,100.2,5.8,106,12.95,106h80.1c7.15,0,12.95-5.8,12.95-12.95v-80.1
		C106,5.8,100.2,0,93.05,0z M89.01,67.94c-0.18,3.86-0.79,6.49-1.68,8.79c-0.93,2.38-2.16,4.4-4.18,6.42
		c-2.01,2.01-4.03,3.25-6.42,4.18c-2.3,0.9-4.94,1.51-8.79,1.68c-3.86,0.18-5.1,0.22-14.94,0.22c-9.84,0-11.07-0.04-14.94-0.22
		c-3.86-0.18-6.49-0.79-8.79-1.68c-2.38-0.93-4.4-2.16-6.42-4.18c-2.01-2.01-3.25-4.03-4.18-6.42c-0.9-2.3-1.51-4.94-1.68-8.79
		c-0.18-3.86-0.22-5.1-0.22-14.94s0.04-11.07,0.22-14.94c0.18-3.86,0.79-6.49,1.68-8.79c0.93-2.38,2.16-4.4,4.18-6.42
		c2.01-2.01,4.03-3.25,6.42-4.18c2.3-0.9,4.94-1.51,8.79-1.68c3.86-0.18,5.1-0.22,14.94-0.22c9.84,0,11.07,0.04,14.94,0.22
		c3.86,0.18,6.49,0.79,8.79,1.68c2.38,0.93,4.4,2.16,6.42,4.18c2.01,2.01,3.25,4.03,4.18,6.42c0.9,2.3,1.51,4.94,1.68,8.79
		c0.18,3.86,0.22,5.1,0.22,14.94S89.19,64.07,89.01,67.94z"/>
</g>
</svg>
