<?xml version="1.0" encoding="utf-8"?>
<!-- Generator: Adobe Illustrator 27.5.0, SVG Export Plug-In . SVG Version: 6.00 Build 0)  -->
<svg version="1.1" id="Layer_1" xmlns="http://www.w3.org/2000/svg" xmlns:xlink="http://www.w3.org/1999/xlink" x="0px" y="0px"
	 viewBox="0 0 106 106" style="enable-background:new 0 0 106 106;" xml:space="preserve">
<style type="text/css">
	.st0{fill-rule:evenodd;clip-rule:evenodd;fill:#F7A833;}
	.st1{fill:#F7A833;}
</style>
<g>
	<path class="st1" d="M93.05,0h-80.1C5.8,0,0,5.8,0,12.95v80.1C0,100.2,5.8,106,12.95,106h80.1c7.15,0,12.95-5.8,12.95-12.95v-80.1
		C106,5.8,100.2,0,93.05,0z M53.16,90.46h-0.02c-6.32,0-12.54-1.59-18.06-4.6l-20.03,5.25l5.36-19.57
		c-3.31-5.73-5.05-12.23-5.04-18.88c0.01-20.83,16.96-37.77,37.78-37.77c10.11,0,19.59,3.94,26.73,11.08
		c7.13,7.14,11.06,16.63,11.06,26.72C90.93,73.51,73.98,90.46,53.16,90.46z"/>
	<path class="st1" d="M53.17,21.27c-17.32,0-31.41,14.08-31.42,31.39c0,5.93,1.66,11.71,4.8,16.71l0.75,1.19l-3.17,11.59l11.89-3.12
		l1.15,0.68c4.82,2.86,10.35,4.37,15.98,4.38h0.01c17.31,0,31.4-14.08,31.41-31.4c0-8.39-3.26-16.28-9.19-22.21
		S61.56,21.27,53.17,21.27z M71.64,66.16c-0.79,2.2-4.56,4.22-6.37,4.49c-1.63,0.24-3.69,0.34-5.95-0.37
		c-1.37-0.44-3.13-1.02-5.38-1.99c-9.47-4.09-15.66-13.62-16.13-14.25c-0.47-0.63-3.85-5.12-3.85-9.76c0-4.65,2.44-6.93,3.3-7.87
		c0.87-0.94,1.89-1.18,2.52-1.18c0.63,0,1.26,0.01,1.81,0.03c0.58,0.03,1.36-0.22,2.12,1.62c0.79,1.89,2.67,6.54,2.91,7.01
		s0.39,1.02,0.08,1.65c-0.31,0.63-0.47,1.02-0.94,1.57c-0.47,0.55-0.99,1.23-1.42,1.65c-0.47,0.47-0.96,0.98-0.41,1.93
		s2.45,4.04,5.25,6.54c3.61,3.22,6.65,4.21,7.59,4.68c0.94,0.47,1.49,0.39,2.05-0.24c0.55-0.63,2.36-2.76,2.99-3.7
		c0.63-0.95,1.26-0.79,2.12-0.47s5.51,2.6,6.45,3.07c0.94,0.47,1.57,0.71,1.81,1.1C72.43,62.06,72.43,63.95,71.64,66.16z"/>
</g>
</svg>
