<?xml version="1.0" encoding="utf-8"?>
<!-- Generator: Adobe Illustrator 27.5.0, SVG Export Plug-In . SVG Version: 6.00 Build 0)  -->
<svg version="1.1" id="Layer_1" xmlns="http://www.w3.org/2000/svg" xmlns:xlink="http://www.w3.org/1999/xlink" x="0px" y="0px"
	 viewBox="0 0 106 106" style="enable-background:new 0 0 106 106;" xml:space="preserve">
<style type="text/css">
	.st0{fill-rule:evenodd;clip-rule:evenodd;fill:#F7A833;}
	.st1{fill:#F7A833;}
</style>
<path class="st1" d="M93.05,0h-80.1C5.8,0,0,5.8,0,12.95v80.1C0,100.2,5.8,106,12.95,106h80.1c7.15,0,12.95-5.8,12.95-12.95v-80.1
	C106,5.8,100.2,0,93.05,0z M66.69,41.34l-0.04,25.02c-0.01,12.59-10.22,22.78-22.81,22.77c-12.59-0.01-22.78-10.22-22.77-22.81
	c0.01-12.59,10.22-22.78,22.81-22.77c1.01,0,2.01,0.07,3.01,0.2v12.29c-5.7-1.68-11.68,1.57-13.37,7.27
	c-1.68,5.7,1.57,11.68,7.27,13.37s11.68-1.57,13.37-7.27c0.29-0.99,0.44-2.02,0.44-3.05V16.87h12.64c0,9.77,7.92,17.69,17.69,17.69
	h0l0,12.64C78.23,47.2,71.71,45.02,66.69,41.34z"/>
</svg>
