<?xml version="1.0" encoding="utf-8"?>
<!-- Generator: Adobe Illustrator 27.5.0, SVG Export Plug-In . SVG Version: 6.00 Build 0)  -->
<svg version="1.1" id="Layer_1" xmlns="http://www.w3.org/2000/svg" xmlns:xlink="http://www.w3.org/1999/xlink" x="0px" y="0px"
	 viewBox="0 0 106 106" style="enable-background:new 0 0 106 106;" xml:space="preserve">
<style type="text/css">
	.st0{fill-rule:evenodd;clip-rule:evenodd;fill:#1a2442;}
	.st1{fill:#1a2442;}
</style>
<g>
	<path class="st1" d="M93.05,0h-80.1C5.8,0,0,5.8,0,12.95v80.1C0,100.2,5.8,106,12.95,106h80.1c7.15,0,12.95-5.8,12.95-12.95v-80.1
		C106,5.8,100.2,0,93.05,0z M36.3,82.23H23.19V42.79H36.3V82.23z M29.75,37.4h-0.09c-4.4,0-7.24-3.03-7.24-6.81
		c0-3.87,2.93-6.82,7.42-6.82c4.49,0,7.25,2.95,7.33,6.82C37.17,34.37,34.32,37.4,29.75,37.4z M83.59,82.23L83.59,82.23H70.47V61.12
		c0-5.3-1.9-8.92-6.64-8.92c-3.62,0-5.78,2.44-6.73,4.8c-0.35,0.84-0.43,2.02-0.43,3.2v22.03H43.56c0,0,0.17-35.75,0-39.45h13.11
		v5.58c1.74-2.69,4.86-6.51,11.82-6.51c8.63,0,15.09,5.64,15.09,17.76V82.23z"/>
	<path class="st1" d="M56.67,48.5v-0.14c-0.03,0.05-0.06,0.09-0.09,0.14H56.67z"/>
</g>
</svg>
