<?xml version="1.0" encoding="utf-8"?>
<!-- Generator: Adobe Illustrator 27.5.0, SVG Export Plug-In . SVG Version: 6.00 Build 0)  -->
<svg version="1.1" id="Layer_1" xmlns="http://www.w3.org/2000/svg" xmlns:xlink="http://www.w3.org/1999/xlink" x="0px" y="0px"
	 viewBox="0 0 106 106" style="enable-background:new 0 0 106 106;" xml:space="preserve">
<style type="text/css">
	.st0{fill-rule:evenodd;clip-rule:evenodd;fill:#1a2442;}
	.st1{fill:#1a2442;}
</style>
<path class="st0" d="M93.05,0C100.2,0,106,5.8,106,12.95v80.1c0,7.15-5.8,12.95-12.95,12.95h-80.1C5.8,106,0,100.2,0,93.05v-80.1
	C0,5.8,5.8,0,12.95,0L93.05,0L93.05,0z M88.71,36.36c-0.86-3.21-3.38-5.73-6.59-6.59C76.31,28.21,53,28.21,53,28.21
	s-23.31,0-29.12,1.56c-3.21,0.86-5.73,3.38-6.59,6.59c-1.56,5.81-1.56,17.94-1.56,17.94s0,12.13,1.56,17.94
	c0.86,3.21,3.38,5.73,6.59,6.59C29.69,80.39,53,80.39,53,80.39s23.31,0,29.12-1.56c3.21-0.86,5.73-3.38,6.59-6.59
	c1.56-5.81,1.56-17.94,1.56-17.94S90.27,42.17,88.71,36.36z M45.55,65.48V43.12L64.91,54.3L45.55,65.48L45.55,65.48z"/>
</svg>
