<?xml version="1.0" encoding="utf-8"?>
<!-- Generator: Adobe Illustrator 27.5.0, SVG Export Plug-In . SVG Version: 6.00 Build 0)  -->
<svg version="1.1" id="Layer_1" xmlns="http://www.w3.org/2000/svg" xmlns:xlink="http://www.w3.org/1999/xlink" x="0px" y="0px"
	 viewBox="0 0 106 106" style="enable-background:new 0 0 106 106;" xml:space="preserve">
<style type="text/css">
	.st0{fill-rule:evenodd;clip-rule:evenodd;fill:#1a2442;}
	.st1{fill:#1a2442;}
</style>
<path class="st1" d="M93.05,0h-80.1C5.8,0,0,5.8,0,12.95v80.1C0,100.2,5.8,106,12.95,106h80.1c7.15,0,12.95-5.8,12.95-12.95v-80.1
	C106,5.8,100.2,0,93.05,0z M79.33,39.51c0.03,0.58,0.03,1.17,0.03,1.75c0,17.94-13.67,38.66-38.66,38.66
	c-7.66,0-14.81-2.25-20.8-6.07c1.06,0.13,2.15,0.19,3.23,0.19c6.36,0,12.22-2.17,16.88-5.83c-5.94-0.11-10.97-4.03-12.69-9.43
	c0.82,0.16,1.67,0.24,2.54,0.24c1.25,0,2.44-0.16,3.58-0.48c-6.2-1.25-10.89-6.76-10.89-13.33v-0.19c1.83,1.01,3.92,1.62,6.15,1.7
	c-3.63-2.44-6.04-6.6-6.04-11.32c0-2.49,0.66-4.82,1.83-6.84c6.7,8.21,16.72,13.65,28.01,14.2c-0.21-1.01-0.34-2.04-0.34-3.1
	c0-7.5,6.1-13.59,13.59-13.59c3.9,0,7.42,1.64,9.91,4.29c3.1-0.61,6.02-1.72,8.64-3.29c-1.03,3.18-3.18,5.86-5.99,7.53
	c2.76-0.34,5.38-1.06,7.82-2.15C84.28,35.19,81.98,37.6,79.33,39.51z"/>
</svg>
