<?xml version="1.0" encoding="utf-8"?>
<!-- Generator: Adobe Illustrator 27.5.0, SVG Export Plug-In . SVG Version: 6.00 Build 0)  -->
<svg version="1.1" id="Layer_1" xmlns="http://www.w3.org/2000/svg" xmlns:xlink="http://www.w3.org/1999/xlink" x="0px" y="0px"
	 viewBox="0 0 106 106" style="enable-background:new 0 0 106 106;" xml:space="preserve">
<style type="text/css">
	.st0{fill-rule:evenodd;clip-rule:evenodd;fill:#1a2442;}
	.st1{fill:#1a2442;}
</style>
<path class="st0" d="M93.05,0h-80.1C5.8,0,0,5.8,0,12.95v80.1C0,100.2,5.8,106,12.95,106h80.1c7.15,0,12.95-5.8,12.95-12.95v-80.1
	C106,5.8,100.2,0,93.05,0z M73.43,28.11h-6.02c-5.93,0-7.79,3.68-7.79,7.46v8.96h13.25l-2.12,13.81H59.62v32.24H44.7V58.34H32.57
	V44.53H44.7V34c0-11.97,7.13-18.59,18.04-18.59c5.23,0,10.69,0.93,10.69,0.93V28.11z"/>
</svg>
