<?xml version="1.0" encoding="utf-8"?>
<!-- Generator: Adobe Illustrator 27.5.0, SVG Export Plug-In . SVG Version: 6.00 Build 0)  -->
<svg version="1.1" id="Layer_1" xmlns="http://www.w3.org/2000/svg" xmlns:xlink="http://www.w3.org/1999/xlink" x="0px" y="0px"
	 viewBox="0 0 106 106" style="enable-background:new 0 0 106 106;" xml:space="preserve">
<style type="text/css">
	.st0{fill-rule:evenodd;clip-rule:evenodd;fill:#1a2442;}
	.st1{fill:#1a2442;}
</style>
<g>
	<path class="st1" d="M93.05,0h-80.1C5.8,0,0,5.8,0,12.95v80.1C0,100.2,5.8,106,12.95,106h80.1c7.15,0,12.95-5.8,12.95-12.95v-80.1
		C106,5.8,100.2,0,93.05,0z M53,95.53c-23.49,0-42.53-19.04-42.53-42.53S29.51,10.47,53,10.47c23.49,0,42.53,19.04,42.53,42.53
		S76.49,95.53,53,95.53z"/>
	<path class="st1" d="M70.91,32.78c-7.57,3.17-40.01,16.77-48.98,20.48c-6.01,2.37-2.49,4.6-2.49,4.6s5.13,1.78,9.53,3.12
		c4.4,1.34,6.74-0.15,6.74-0.15l20.68-14.1c7.33-5.05,5.57-0.89,3.81,0.89c-3.81,3.86-10.12,9.94-15.4,14.84
		c-2.35,2.08-1.17,3.86-0.15,4.75c3.81,3.26,14.22,9.94,14.81,10.39c3.1,2.22,9.19,5.41,10.12-1.34l3.67-23.3
		c1.17-7.86,2.35-15.14,2.49-17.21C76.18,30.7,70.91,32.78,70.91,32.78z"/>
</g>
</svg>
