<?xml version="1.0" encoding="utf-8"?>
<!-- Generator: Adobe Illustrator 27.5.0, SVG Export Plug-In . SVG Version: 6.00 Build 0)  -->
<svg version="1.1" id="Layer_1" xmlns="http://www.w3.org/2000/svg" xmlns:xlink="http://www.w3.org/1999/xlink" x="0px" y="0px"
	 viewBox="0 0 499.5 151.78" style="enable-background:new 0 0 499.5 151.78;" xml:space="preserve">
<style type="text/css">
	.st0{fill:#1A2442;}
	.st1{fill:#F7A833;}
</style>
<g>
	<path class="st0" d="M372.85,110.32c-0.97,23.25-20.27,41.46-43.96,41.46h-45.46v-12.11c0-6.43,5.23-11.65,11.65-11.65h34.52
		c5.31,0,10.29-2.11,14-5.94c3.71-3.82,5.67-8.86,5.51-14.18c-0.31-10.44-9.31-18.94-20.08-18.94h-45.61v-12.1
		c0-6.43,5.23-11.66,11.65-11.66h32.31c9.63,0,17.59-7.83,17.76-17.46c0.08-4.63-1.74-9.07-5.1-12.49
		c-3.49-3.55-8.31-5.58-13.23-5.58h-31.75c-6.43,0-11.65-5.23-11.65-11.65V5.91h43.28c23.14,0,42.07,18.51,42.21,41.27
		c0.07,10.58-3.95,20.8-11.11,28.51C367.81,84.33,373.39,97.05,372.85,110.32z"/>
	<rect x="283.43" y="5.91" class="st1" width="33.5" height="145.56"/>
	<path class="st0" d="M192.12,151.78c-41.84,0-75.89-34.04-75.89-75.89C116.23,34.04,150.28,0,192.12,0
		c20.24,0,39.3,7.9,53.64,22.25c14.35,14.35,22.25,33.4,22.25,53.64C268.01,117.73,233.97,151.78,192.12,151.78z M140.45,75.89
		c0,28.49,23.19,51.68,51.68,51.68s51.68-23.18,51.68-51.68c0-28.49-23.18-51.68-51.68-51.68C163.63,24.21,140.45,47.4,140.45,75.89
		z"/>
	<circle class="st1" cx="192.12" cy="76.67" r="29.07"/>
	<path class="st0" d="M3.33,125.65L0,119.72l11.79-6.59c5.02-2.83,11.25-1.61,14.8,2.9c5.33,6.78,15.48,11,26.47,11
		c17.48,0,28.23-9.16,29.82-18.2c1.36-7.76-4.67-14.87-16.13-19c-4-1.45-8.29-2.52-12.82-3.65l-2.17-0.55
		c-3.07-0.78-5.64-2.7-7.23-5.44c-1.59-2.73-2-5.92-1.17-8.96l3.46-12.58l6.56,1.81c2.09,0.57,4.26,1.12,6.37,1.64
		c5.05,1.27,10.28,2.57,15.41,4.43c27.92,10.08,34.88,30.66,32.1,46.56c-3.36,19.22-23.06,38.69-54.21,38.69
		C31.73,151.78,12.21,141.52,3.33,125.65z M17.94,45.38L4.53,43.12l1.13-6.71c1.72-10.09,7.77-19.71,16.2-25.74
		C34.73,1.46,52.36-1.96,69.02,1.51c14.74,3.07,27.06,11.31,33.81,22.59l3.49,5.84L94.7,36.88c-4.91,2.94-11.14,1.91-14.83-2.44
		c-3.55-4.2-9.21-7.28-15.91-8.68c-10.01-2.09-20.36-0.2-27.69,5.04c-2.39,1.71-4.39,4.34-5.49,7.21
		c-1.74,4.51-6.13,7.54-10.92,7.54C19.23,45.55,18.58,45.5,17.94,45.38z"/>
	<circle class="st1" cx="37.03" cy="54.41" r="29.07"/>
	<g>
		<path class="st0" d="M417.15,151.64V85.96L359.13,6.12h24.15c3.68,0,7.19,1.78,9.36,4.76l44.85,61.72
			c2.59,3.57,3.97,7.78,3.97,12.2v55.26c0,6.38-5.19,11.58-11.57,11.58H417.15z M441.32,44.42l0.01-0.01l24.66-33.52
			c2.15-2.98,5.65-4.76,9.35-4.76h24.17l-45.34,61.94l-10.29-7.48C438.72,56.83,437.57,49.57,441.32,44.42z"/>
		
			<rect x="417.97" y="49.05" transform="matrix(0.5664 -0.8242 0.8242 0.5664 138.4945 394.5935)" class="st1" width="52.5" height="33.27"/>
	</g>
</g>
</svg>
